<?xml version="1.0" encoding="UTF-8"?>
<svg version="1.1" xmlns="http://www.w3.org/2000/svg" width="223" height="223">
<path d="M0 0 C0.77386047 -0.00807175 1.54772095 -0.01614349 2.34503174 -0.02445984 C3.98569532 -0.03826206 5.62638715 -0.04900141 7.26708984 -0.05688477 C8.91138389 -0.06829232 10.55564432 -0.08856113 12.19970703 -0.1184082 C38.7592439 -0.59930615 38.7592439 -0.59930615 49.015625 6.23828125 C50.33751901 6.68992837 51.67282502 7.10321361 53.015625 7.48828125 C69.80363199 12.95792224 89.80012108 26.76939967 99.015625 42.23828125 C99.015625 42.89828125 99.015625 43.55828125 99.015625 44.23828125 C99.675625 44.23828125 100.335625 44.23828125 101.015625 44.23828125 C103.96266901 48.3888642 106.47474143 52.8295534 109.015625 57.23828125 C109.73878906 58.48931641 109.73878906 58.48931641 110.4765625 59.765625 C114.4573259 67.18201542 116.79578351 75.15970693 119.015625 83.23828125 C119.33917969 84.388125 119.66273438 85.53796875 119.99609375 86.72265625 C127.63512342 118.42642256 119.01225208 149.17358206 102.453125 176.30078125 C99.84872113 180.27309449 96.99744837 183.59588 93.49609375 186.80078125 C91.77527055 188.3707356 91.77527055 188.3707356 90.015625 191.23828125 C89.355625 191.23828125 88.695625 191.23828125 88.015625 191.23828125 C88.015625 191.89828125 88.015625 192.55828125 88.015625 193.23828125 C69.29538849 210.88169 44.55048873 222.0916159 18.890625 222.92578125 C17.23075562 222.98221802 17.23075562 222.98221802 15.53735352 223.03979492 C-15.11693525 223.92985216 -39.21276488 215.43460239 -62.984375 196.23828125 C-63.72429688 195.72007812 -64.46421875 195.201875 -65.2265625 194.66796875 C-65.80664062 194.19617188 -66.38671875 193.724375 -66.984375 193.23828125 C-66.984375 192.57828125 -66.984375 191.91828125 -66.984375 191.23828125 C-67.644375 191.23828125 -68.304375 191.23828125 -68.984375 191.23828125 C-71.502482 188.73878096 -73.71195304 185.96113874 -75.984375 183.23828125 C-76.78875 182.31015625 -77.593125 181.38203125 -78.421875 180.42578125 C-79.984375 178.23828125 -79.984375 178.23828125 -79.984375 175.23828125 C-80.974375 174.90828125 -81.964375 174.57828125 -82.984375 174.23828125 C-84.41218267 172.00397134 -85.6538621 169.83872852 -86.859375 167.48828125 C-87.38664185 166.47652832 -87.38664185 166.47652832 -87.92456055 165.44433594 C-101.96519547 137.97534993 -104.8482207 107.58562578 -96.609375 77.92578125 C-93.66731713 68.91572903 -89.84025595 60.371506 -84.984375 52.23828125 C-84.53707031 51.46871094 -84.08976562 50.69914062 -83.62890625 49.90625 C-81.1084372 45.68575784 -81.1084372 45.68575784 -79.984375 44.23828125 C-79.324375 44.23828125 -78.664375 44.23828125 -77.984375 44.23828125 C-77.72527344 43.5009375 -77.46617188 42.76359375 -77.19921875 42.00390625 C-70.34086079 26.39066691 -48.15818583 13.70793689 -32.984375 7.23828125 C-28.67571787 5.72106498 -24.31287215 4.43239958 -19.921875 3.17578125 C-18.73464844 2.83417969 -17.54742187 2.49257813 -16.32421875 2.140625 C-10.81000898 0.65082096 -5.7104727 0.05776945 0 0 Z " fill="#881D5D" transform="translate(100.984375,-0.23828125)"/>
<path d="M0 0 C15.88466864 13.9020709 26.9402168 31.63122016 28.58300781 53.09423828 C29.73157649 76.52407408 23.22922834 96.95948347 7.87890625 114.7734375 C-2.11331177 125.35343305 -13.70775583 132.49778503 -27.58984375 136.8359375 C-28.57984375 137.15433594 -29.56984375 137.47273437 -30.58984375 137.80078125 C-50.71798362 143.37196282 -71.89952312 139.87712097 -89.99609375 129.97265625 C-94.97774793 127.09410608 -99.35345383 123.72301106 -103.58984375 119.8359375 C-104.34523438 119.17207031 -105.100625 118.50820312 -105.87890625 117.82421875 C-120.41105686 104.31581071 -128.75388242 85.04326275 -129.91015625 65.32421875 C-130.70542002 43.07511523 -123.70305771 23.37836887 -108.58984375 6.8359375 C-108.00074219 6.1553125 -107.41164063 5.4746875 -106.8046875 4.7734375 C-79.15584481 -25.28220467 -30.32862763 -25.34247317 0 0 Z " fill="#FAE4A8" transform="translate(161.58984375,48.1640625)"/>
<path d="M0 0 C15.88466864 13.9020709 26.9402168 31.63122016 28.58300781 53.09423828 C29.73157649 76.52407408 23.22922834 96.95948347 7.87890625 114.7734375 C-2.11331177 125.35343305 -13.70775583 132.49778503 -27.58984375 136.8359375 C-28.57984375 137.15433594 -29.56984375 137.47273437 -30.58984375 137.80078125 C-50.71798362 143.37196282 -71.89952312 139.87712097 -89.99609375 129.97265625 C-94.97774793 127.09410608 -99.35345383 123.72301106 -103.58984375 119.8359375 C-104.34523438 119.17207031 -105.100625 118.50820312 -105.87890625 117.82421875 C-120.41105686 104.31581071 -128.75388242 85.04326275 -129.91015625 65.32421875 C-130.70542002 43.07511523 -123.70305771 23.37836887 -108.58984375 6.8359375 C-108.00074219 6.1553125 -107.41164063 5.4746875 -106.8046875 4.7734375 C-79.15584481 -25.28220467 -30.32862763 -25.34247317 0 0 Z M-94.87890625 22.5078125 C-105.82623284 37.0222455 -110.69028787 52.69285607 -108.58984375 70.8359375 C-105.50310828 86.71374945 -96.74577692 100.94803644 -83.83984375 110.6484375 C-70.87220245 119.18613922 -55.90028155 122.10657834 -40.58984375 120.8359375 C-23.51061299 117.30953383 -9.44033388 108.248064 0.41015625 93.8359375 C8.91633793 80.0899479 11.72886828 64.00266244 8.71484375 48.1875 C4.08512344 31.80840547 -5.52374562 18.42264803 -19.92578125 9.3671875 C-45.03166712 -4.31176693 -76.12259993 0.61478601 -94.87890625 22.5078125 Z " fill="#E57556" transform="translate(161.58984375,48.1640625)"/>
<path d="M0 0 C0.77386047 -0.00807175 1.54772095 -0.01614349 2.34503174 -0.02445984 C3.98569532 -0.03826206 5.62638715 -0.04900141 7.26708984 -0.05688477 C8.91138389 -0.06829232 10.55564432 -0.08856113 12.19970703 -0.1184082 C38.7592439 -0.59930615 38.7592439 -0.59930615 49.015625 6.23828125 C50.33751901 6.68992837 51.67282502 7.10321361 53.015625 7.48828125 C69.80363199 12.95792224 89.80012108 26.76939967 99.015625 42.23828125 C99.015625 42.89828125 99.015625 43.55828125 99.015625 44.23828125 C99.675625 44.23828125 100.335625 44.23828125 101.015625 44.23828125 C103.96266901 48.3888642 106.47474143 52.8295534 109.015625 57.23828125 C109.73878906 58.48931641 109.73878906 58.48931641 110.4765625 59.765625 C114.4573259 67.18201542 116.79578351 75.15970693 119.015625 83.23828125 C119.33917969 84.388125 119.66273438 85.53796875 119.99609375 86.72265625 C127.63512342 118.42642256 119.01225208 149.17358206 102.453125 176.30078125 C99.84872113 180.27309449 96.99744837 183.59588 93.49609375 186.80078125 C91.77527055 188.3707356 91.77527055 188.3707356 90.015625 191.23828125 C89.355625 191.23828125 88.695625 191.23828125 88.015625 191.23828125 C88.015625 191.89828125 88.015625 192.55828125 88.015625 193.23828125 C69.29538849 210.88169 44.55048873 222.0916159 18.890625 222.92578125 C17.23075562 222.98221802 17.23075562 222.98221802 15.53735352 223.03979492 C-15.11693525 223.92985216 -39.21276488 215.43460239 -62.984375 196.23828125 C-63.72429688 195.72007812 -64.46421875 195.201875 -65.2265625 194.66796875 C-65.80664062 194.19617188 -66.38671875 193.724375 -66.984375 193.23828125 C-66.984375 192.57828125 -66.984375 191.91828125 -66.984375 191.23828125 C-67.644375 191.23828125 -68.304375 191.23828125 -68.984375 191.23828125 C-71.502482 188.73878096 -73.71195304 185.96113874 -75.984375 183.23828125 C-76.78875 182.31015625 -77.593125 181.38203125 -78.421875 180.42578125 C-79.984375 178.23828125 -79.984375 178.23828125 -79.984375 175.23828125 C-80.974375 174.90828125 -81.964375 174.57828125 -82.984375 174.23828125 C-84.41218267 172.00397134 -85.6538621 169.83872852 -86.859375 167.48828125 C-87.38664185 166.47652832 -87.38664185 166.47652832 -87.92456055 165.44433594 C-101.96519547 137.97534993 -104.8482207 107.58562578 -96.609375 77.92578125 C-93.66731713 68.91572903 -89.84025595 60.371506 -84.984375 52.23828125 C-84.53707031 51.46871094 -84.08976562 50.69914062 -83.62890625 49.90625 C-81.1084372 45.68575784 -81.1084372 45.68575784 -79.984375 44.23828125 C-79.324375 44.23828125 -78.664375 44.23828125 -77.984375 44.23828125 C-77.72527344 43.5009375 -77.46617188 42.76359375 -77.19921875 42.00390625 C-70.34086079 26.39066691 -48.15818583 13.70793689 -32.984375 7.23828125 C-28.67571787 5.72106498 -24.31287215 4.43239958 -19.921875 3.17578125 C-18.73464844 2.83417969 -17.54742187 2.49257813 -16.32421875 2.140625 C-10.81000898 0.65082096 -5.7104727 0.05776945 0 0 Z M-45.984375 29.23828125 C-46.69722656 29.70492188 -47.41007812 30.1715625 -48.14453125 30.65234375 C-49.80493429 31.78128578 -51.40318568 33.00082874 -52.984375 34.23828125 C-52.984375 34.89828125 -52.984375 35.55828125 -52.984375 36.23828125 C-53.56960937 36.50125 -54.15484375 36.76421875 -54.7578125 37.03515625 C-69.38984616 44.94158847 -79.6631778 66.14849258 -84.33203125 81.44140625 C-85.3419031 85.01456795 -86.21600074 88.60478261 -86.984375 92.23828125 C-87.17644531 93.12257813 -87.36851563 94.006875 -87.56640625 94.91796875 C-90.86455533 121.11821842 -85.73350778 148.60916153 -69.66503906 169.99414062 C-66.58941314 173.88345846 -63.32432731 177.57494476 -59.984375 181.23828125 C-59.39011719 181.91503906 -58.79585937 182.59179688 -58.18359375 183.2890625 C-44.18561974 198.39853817 -20.54832204 209.16251361 -0.09448242 210.4152832 C14.158532 210.70597197 27.39207374 210.70192078 41.015625 206.23828125 C42.78099609 205.66013672 42.78099609 205.66013672 44.58203125 205.0703125 C70.02563597 195.9601458 89.53065002 176.25081574 101.13134766 152.19970703 C106.98278565 139.2205649 109.39767906 126.15842987 109.328125 111.98828125 C109.31966553 110.19040161 109.31966553 110.19040161 109.31103516 108.35620117 C109.19500163 99.90815621 108.6488362 92.31677448 106.015625 84.23828125 C105.81694824 83.6148584 105.61827148 82.99143555 105.41357422 82.34912109 C96.91284663 56.19744455 79.84103868 34.9649347 55.15185547 22.28076172 C22.18467904 5.93540944 -15.43019551 8.94357854 -45.984375 29.23828125 Z " fill="#000000" transform="translate(100.984375,-0.23828125)"/>
<path d="M0 0 C3.63 0 7.26 0 11 0 C11 6.6 11 13.2 11 20 C17.6 20 24.2 20 31 20 C31 23.63 31 27.26 31 31 C24.4 31 17.8 31 11 31 C11 37.6 11 44.2 11 51 C7.37 51 3.74 51 0 51 C0 44.4 0 37.8 0 31 C-6.6 31 -13.2 31 -20 31 C-20 27.37 -20 23.74 -20 20 C-13.4 20 -6.8 20 0 20 C0 13.4 0 6.8 0 0 Z " fill="#3A1245" transform="translate(106,82)"/>
<path d="M0 0 C5.03553491 2.71569067 10.73148059 4.3231092 16.13671875 6.15234375 C16.13671875 6.81234375 16.13671875 7.47234375 16.13671875 8.15234375 C17.12671875 8.48234375 18.11671875 8.81234375 19.13671875 9.15234375 C19.13671875 9.81234375 19.13671875 10.47234375 19.13671875 11.15234375 C19.87921875 11.39984375 20.62171875 11.64734375 21.38671875 11.90234375 C24.59139286 13.3590138 26.01499754 14.32338213 28.13671875 17.15234375 C29.34491198 20.43615099 30.28236381 23.76081352 31.13671875 27.15234375 C28.50826339 24.59898712 26.12017134 22.1315965 23.828125 19.2578125 C15.06098574 8.68840339 1.39977437 3.28124513 -11.86328125 1.15234375 C-29.99168691 -0.14432351 -45.61873938 4.90442433 -59.390625 16.734375 C-70.52167402 27.61923968 -76.82452564 42.43692149 -77.16479492 57.90869141 C-77.19846612 65.16820147 -76.84252609 72.11895584 -74.86328125 79.15234375 C-76.18328125 78.82234375 -77.50328125 78.49234375 -78.86328125 78.15234375 C-79.35828125 75.67734375 -79.35828125 75.67734375 -79.86328125 73.15234375 C-80.19328125 73.15234375 -80.52328125 73.15234375 -80.86328125 73.15234375 C-81.72835233 67.20498009 -81.99970198 61.34101922 -82.05078125 55.33984375 C-82.06367187 54.59871338 -82.0765625 53.85758301 -82.08984375 53.09399414 C-82.09689836 49.21351639 -81.87220467 46.48312385 -79.86328125 43.15234375 C-79.30455281 41.13083323 -78.86647211 39.10468696 -78.42578125 37.0546875 C-77.86328125 35.15234375 -77.86328125 35.15234375 -75.86328125 32.15234375 C-75.59 31.39953125 -75.31671875 30.64671875 -75.03515625 29.87109375 C-73.5426885 26.40856857 -71.41455693 23.60427774 -69.11328125 20.65234375 C-68.695625 20.09675781 -68.27796875 19.54117188 -67.84765625 18.96875 C-64.87888715 15.12202174 -61.75937035 12.06896911 -57.86328125 9.15234375 C-57.20328125 9.15234375 -56.54328125 9.15234375 -55.86328125 9.15234375 C-55.53328125 8.16234375 -55.20328125 7.17234375 -54.86328125 6.15234375 C-50.08535692 2.90335521 -46.65184313 1.83335103 -40.86328125 1.15234375 C-40.20328125 0.49234375 -39.54328125 -0.16765625 -38.86328125 -0.84765625 C-26.4917529 -5.57462046 -11.62571269 -7.45959773 0 0 Z " fill="#C6694C" transform="translate(130.86328125,49.84765625)"/>
<path d="M0 0 C2 3 2 3 2 6 C2.66 6 3.32 6 4 6 C5.125 13.75 5.125 13.75 4 16 C4.66 16 5.32 16 6 16 C5.01 20.455 5.01 20.455 4 25 C4.66 25 5.32 25 6 25 C6.33 23.68 6.66 22.36 7 21 C7.19133518 30.18408841 6.23395632 37.14906551 1 45 C1.33 45.66 1.66 46.32 2 47 C-2.09260197 57.59829473 -10.73781766 67.35116744 -19 75 C-20.32303717 75.3721042 -21.65737935 75.70630173 -23 76 C-24.35917857 76.96457834 -25.69084721 77.96854629 -27 79 C-31.55555556 82 -31.55555556 82 -35 82 C-37.83978897 82.8642836 -40.5779506 83.81830416 -43.3046875 84.9921875 C-53.61933762 88.84896972 -63.08364164 88.47835539 -73 84 C-73 83.34 -73 82.68 -73 82 C-73.7425 82.103125 -74.485 82.20625 -75.25 82.3125 C-78 82 -78 82 -80.3125 79.5 C-81.1478125 78.2625 -81.1478125 78.2625 -82 77 C-80.72125 77.28875 -79.4425 77.5775 -78.125 77.875 C-76.87976563 78.14570313 -76.87976563 78.14570313 -75.609375 78.421875 C-73.9689368 78.78532538 -72.33252212 79.16800464 -70.703125 79.578125 C-54.56452027 83.36907242 -39.10818235 80.57060589 -25 72 C-10.86232953 62.61136125 -3.32879323 49.37204663 0.60961914 33.11083984 C1.28282265 29.47074134 1.29416009 25.87944295 1.25 22.1875 C1.24528687 21.01380859 1.24528687 21.01380859 1.24047852 19.81640625 C1.16383102 14.39177747 0.58968392 9.26219072 -0.66015625 3.96875 C-1 2 -1 2 0 0 Z " fill="#C86B4E" transform="translate(169,87)"/>
<path d="M0 0 C1.27875 0.28875 2.5575 0.5775 3.875 0.875 C8.90171927 1.99382464 13.94685368 3.0083596 19 4 C19 4.99 19 5.98 19 7 C26.94957992 7.22428282 34.27111181 6.95403042 42 5 C39.51633902 8.20806209 38.25888531 8.95331576 34.1875 9.6875 C33.48882812 9.7390625 32.79015625 9.790625 32.0703125 9.84375 C29.7567079 9.97610751 29.7567079 9.97610751 26.5625 10.6875 C20.38181027 11.22966577 14.6262368 9.54088114 9 7 C9 6.34 9 5.68 9 5 C8.2575 5.103125 7.515 5.20625 6.75 5.3125 C4 5 4 5 1.6875 2.5 C1.130625 1.675 0.57375 0.85 0 0 Z " fill="#D06B4E" transform="translate(87,164)"/>
<path d="M0 0 C2 3 2 3 2 6 C2.66 6 3.32 6 4 6 C5.125 13.75 5.125 13.75 4 16 C4.66 16 5.32 16 6 16 C5.69140975 18.77132017 5.3782967 21.54199986 5.0625 24.3125 C4.97548828 25.09818359 4.88847656 25.88386719 4.79882812 26.69335938 C4.71181641 27.45068359 4.62480469 28.20800781 4.53515625 28.98828125 C4.456604 29.68477783 4.37805176 30.38127441 4.29711914 31.09887695 C4 33 4 33 3 36 C2.34 36 1.68 36 1 36 C1.01047363 35.3608667 1.02094727 34.7217334 1.03173828 34.06323242 C1.07388495 31.10469665 1.09950945 28.14622439 1.125 25.1875 C1.14175781 24.18267578 1.15851563 23.17785156 1.17578125 22.14257812 C1.2156921 15.93644017 0.67520079 10.23830631 -0.66455078 4.1730957 C-1 2 -1 2 0 0 Z " fill="#C16449" transform="translate(169,87)"/>
<path d="M0 0 C2.80695855 2.72440094 5.40514904 5.46580138 7.875 8.5 C10.86103792 12.05369617 14.13454795 14.44880164 18 17 C14.31331834 18.22889389 13.49837355 17.67968559 10.0625 16.0625 C5.5762865 13.71475853 3.48979464 11.60850501 1.60546875 6.9375 C0.88700483 4.63841544 0.29907236 2.39257886 0 0 Z " fill="#C5694C" transform="translate(62,142)"/>
<path d="M0 0 C0 0.66 0 1.32 0 2 C-7.46846808 4.83228586 -15.01676381 6.18356118 -23 5 C-23.66 4.01 -24.32 3.02 -25 2 C-23.83082031 1.93941406 -22.66164063 1.87882813 -21.45703125 1.81640625 C-19.90884386 1.73195966 -18.36066732 1.64731375 -16.8125 1.5625 C-16.04357422 1.52318359 -15.27464844 1.48386719 -14.48242188 1.44335938 C-9.61804685 1.17195648 -4.83066874 0 0 0 Z " fill="#C06348" transform="translate(129,167)"/>
<path d="M0 0 C0.33 0 0.66 0 1 0 C1.04898438 1.18335937 1.09796875 2.36671875 1.1484375 3.5859375 C1.52942265 11.90777938 2.0334298 19.87150984 4 28 C2.68 27.67 1.36 27.34 0 27 C-1.14054367 21.54168388 -1.14885912 16.23474458 -1.125 10.6875 C-1.12886719 9.76904297 -1.13273437 8.85058594 -1.13671875 7.90429688 C-1.13542969 7.03224609 -1.13414063 6.16019531 -1.1328125 5.26171875 C-1.13112061 4.07002075 -1.13112061 4.07002075 -1.12939453 2.85424805 C-1 1 -1 1 0 0 Z " fill="#C0654A" transform="translate(52,101)"/>
<path d="M0 0 C0 7.27950987 -6.30755695 12.85767741 -10.87890625 17.9609375 C-13 20 -13 20 -16 21 C-14.48342163 17.6072422 -12.48592304 14.98483508 -10.125 12.125 C-7.82018148 9.29825699 -5.58985774 6.51131154 -3.625 3.4375 C-2 1 -2 1 0 0 Z " fill="#C0684B" transform="translate(167,135)"/>
<path d="M0 0 C1.27875 0.28875 2.5575 0.5775 3.875 0.875 C8.90171927 1.99382464 13.94685368 3.0083596 19 4 C15.99382731 7.00617269 13.17618402 6.59585316 9 7 C9 6.34 9 5.68 9 5 C8.2575 5.103125 7.515 5.20625 6.75 5.3125 C4 5 4 5 1.6875 2.5 C1.130625 1.675 0.57375 0.85 0 0 Z " fill="#C46E50" transform="translate(87,164)"/>
<path d="M0 0 C0.33 0 0.66 0 1 0 C1.10662326 5.11791642 0.71167986 9.92928099 0 15 C-0.99 15.33 -1.98 15.66 -3 16 C-2.67 12.04 -2.34 8.08 -2 4 C-1.34 4 -0.68 4 0 4 C0 2.68 0 1.36 0 0 Z " fill="#D06B4D" transform="translate(175,108)"/>
<path d="M0 0 C0.48210937 0.42152344 0.96421875 0.84304687 1.4609375 1.27734375 C2.09257813 1.82519531 2.72421875 2.37304688 3.375 2.9375 C4.00148438 3.48277344 4.62796875 4.02804688 5.2734375 4.58984375 C6.95632334 6.06958624 6.95632334 6.06958624 9 7 C8.67 7.66 8.34 8.32 8 9 C3.71675909 6.48592381 1.35468295 4.87685861 0 0 Z " fill="#BD6348" transform="translate(66,148)"/>
</svg>
